<?xml version="1.0" standalone="no"?>
<!DOCTYPE svg PUBLIC "-//W3C//DTD SVG 20010904//EN"
 "http://www.w3.org/TR/2001/REC-SVG-20010904/DTD/svg10.dtd">
<svg version="1.0" xmlns="http://www.w3.org/2000/svg"
 width="712.000000pt" height="712.000000pt" viewBox="0 0 712.000000 712.000000"
 preserveAspectRatio="xMidYMid meet">
<metadata>
Created by potrace 1.11, written by Peter Selinger 2001-2013
</metadata>
<g transform="translate(0.000000,712.000000) scale(0.100000,-0.100000)"
fill="#000000" stroke="none">
<path d="M1778 7083 c-24 -53 -62 -117 -70 -121 -5 -2 -8 -11 -8 -21 0 -9 -4
-21 -9 -26 -10 -10 -87 -149 -119 -215 -9 -19 -19 -37 -22 -40 -3 -3 -15 -23
-27 -45 -52 -97 -84 -157 -136 -252 -31 -56 -80 -146 -108 -200 -29 -54 -55
-102 -59 -108 -5 -5 -26 -44 -48 -85 -21 -41 -53 -100 -69 -130 -17 -30 -42
-77 -57 -104 -14 -27 -31 -55 -37 -62 -6 -8 -8 -14 -5 -14 4 0 -1 -12 -12 -27
-10 -16 -38 -64 -62 -108 -23 -44 -47 -86 -52 -92 -6 -7 -7 -13 -3 -13 5 0 1
-8 -7 -17 -9 -10 -30 -47 -48 -83 -18 -36 -35 -67 -39 -70 -3 -3 -19 -30 -34
-60 -15 -30 -40 -77 -55 -105 -16 -27 -55 -99 -87 -160 -32 -60 -61 -114 -65
-120 -4 -5 -34 -59 -66 -120 -31 -60 -60 -112 -63 -115 -3 -3 -17 -27 -31 -55
-42 -83 -105 -200 -110 -205 -3 -3 -12 -18 -20 -35 -8 -16 -31 -59 -51 -95
-38 -69 -111 -203 -140 -259 l-18 -34 51 -96 c28 -53 60 -108 70 -124 11 -15
16 -27 13 -27 -3 0 3 -13 14 -29 12 -16 21 -31 21 -34 0 -3 16 -34 36 -69 20
-34 61 -110 91 -168 31 -58 59 -109 63 -115 5 -5 23 -39 42 -75 35 -66 91
-169 136 -250 14 -25 43 -79 65 -120 23 -41 56 -102 74 -135 18 -33 51 -96 74
-140 23 -44 45 -81 50 -83 5 -2 9 -12 9 -23 0 -10 3 -19 8 -19 4 0 16 -19 27
-43 11 -23 22 -44 25 -47 3 -3 18 -30 34 -60 41 -79 100 -189 123 -230 11 -19
39 -71 63 -115 24 -44 60 -111 82 -148 21 -38 38 -72 38 -76 0 -3 11 -23 25
-43 14 -20 25 -44 25 -52 0 -9 4 -16 9 -16 5 0 12 -8 16 -19 3 -10 37 -75 75
-144 39 -69 70 -130 70 -136 0 -6 4 -11 8 -11 4 0 13 -12 19 -27 6 -16 29 -59
51 -98 21 -38 60 -110 87 -160 26 -49 51 -94 55 -100 4 -5 29 -50 55 -100 27
-49 52 -92 56 -95 10 -7 3516 -7 3521 0 13 21 31 53 55 100 15 30 31 56 35 58
4 2 8 7 8 11 0 5 23 50 51 102 29 52 66 121 84 154 42 81 104 193 125 230 10
17 37 66 60 110 24 44 63 115 87 159 23 43 43 80 43 82 0 3 10 21 23 42 13 20
52 91 87 157 34 66 66 125 70 130 4 6 24 42 44 80 20 39 41 77 46 85 5 8 35
62 66 120 64 119 104 192 144 265 15 28 46 86 70 130 23 44 50 94 60 110 10
17 37 66 60 110 79 149 124 230 131 235 3 3 10 16 14 30 4 14 13 32 20 40 7 8
19 29 27 45 13 28 78 148 118 220 9 16 30 55 46 85 16 30 33 58 39 62 5 4 7 8
2 8 -4 0 4 18 17 39 14 21 22 42 19 45 -4 3 -1 6 5 6 6 0 21 23 34 50 13 28
27 50 31 50 5 0 6 4 3 9 -3 5 4 21 15 35 l21 27 -37 72 c-21 40 -45 80 -53 90
-8 9 -12 17 -8 17 3 0 -4 17 -17 38 -13 20 -27 47 -31 60 -4 12 -12 22 -17 22
-5 0 -9 9 -9 20 0 11 -4 20 -9 20 -5 0 -11 8 -14 18 -5 15 -39 80 -124 232
-16 30 -50 91 -73 135 -24 44 -52 96 -63 115 -11 19 -32 58 -47 85 -49 92
-107 199 -147 270 -21 39 -46 86 -56 105 -10 19 -27 50 -38 68 -11 19 -40 73
-65 120 -25 48 -55 103 -66 122 -11 19 -36 64 -55 100 -19 36 -47 88 -62 115
-15 28 -47 86 -71 130 -70 130 -101 188 -120 220 -17 30 -70 127 -120 220 -44
82 -140 259 -150 275 -5 8 -69 125 -141 260 -73 135 -140 259 -149 275 l-17
30 -1764 3 -1764 2 -17 -37z"/>
</g>
</svg>
