<?xml version="1.0" standalone="no"?>
<!DOCTYPE svg PUBLIC "-//W3C//DTD SVG 20010904//EN"
 "http://www.w3.org/TR/2001/REC-SVG-20010904/DTD/svg10.dtd">
<svg version="1.0" xmlns="http://www.w3.org/2000/svg"
 width="996.000000pt" height="996.000000pt" viewBox="0 0 996.000000 996.000000"
 preserveAspectRatio="xMidYMid meet">
<metadata>
Created by potrace 1.11, written by Peter Selinger 2001-2013
</metadata>
<g transform="translate(0.000000,996.000000) scale(0.100000,-0.100000)"
fill="#000000" stroke="none">
<path d="M4898 9815 c-2 -2 -44 -6 -95 -9 -50 -4 -100 -8 -110 -10 -10 -2 -45
-7 -78 -12 -33 -4 -62 -8 -65 -9 -3 0 -27 -4 -55 -8 -117 -18 -288 -59 -435
-104 -47 -15 -87 -27 -90 -28 -3 -1 -18 -7 -35 -14 -16 -6 -43 -16 -60 -22
-54 -20 -68 -26 -215 -99 -164 -81 -158 -78 -260 -144 -354 -231 -651 -591
-796 -967 -20 -51 -38 -100 -39 -109 -2 -8 -9 -31 -15 -50 -10 -32 -19 -66
-24 -96 -1 -6 -10 -24 -21 -40 -11 -16 -25 -38 -31 -49 -6 -11 -28 -49 -49
-85 -67 -117 -136 -264 -145 -310 -4 -25 -11 -83 -15 -130 -4 -47 -8 -107 -11
-135 -26 -308 -25 -1240 1 -1540 1 -22 6 -80 10 -130 4 -49 8 -101 10 -115 2
-14 7 -47 10 -75 3 -27 7 -63 9 -80 3 -16 7 -52 11 -80 3 -27 8 -61 11 -75 2
-14 7 -41 10 -60 9 -58 12 -74 18 -100 3 -14 8 -38 11 -55 12 -64 16 -83 35
-161 22 -86 66 -227 98 -309 20 -53 83 -187 92 -195 19 -19 39 -71 34 -91 -12
-53 -25 -115 -29 -139 -2 -14 -13 -70 -24 -126 -25 -115 -29 -138 -36 -179 -7
-40 -11 -59 -40 -200 -14 -66 -27 -129 -29 -140 -2 -11 -9 -44 -15 -73 -26
-127 -30 -419 -7 -537 2 -11 7 -45 11 -75 4 -30 14 -84 22 -120 8 -36 16 -72
18 -80 13 -64 71 -244 116 -357 29 -76 167 -363 178 -373 3 -3 12 -16 19 -29
8 -13 22 -39 33 -58 30 -53 159 -246 180 -269 10 -11 19 -25 19 -31 0 -6 3
-13 8 -15 4 -2 23 -23 42 -48 19 -25 43 -54 52 -65 9 -11 26 -31 37 -45 19
-23 20 -24 22 -5 0 11 2 31 4 45 18 152 17 143 29 195 30 125 57 182 75 156 5
-8 6 -23 0 -35 -8 -20 -46 -165 -56 -216 -8 -39 -7 -282 1 -315 41 -177 112
-302 247 -435 41 -41 103 -94 137 -118 72 -51 72 -51 43 83 -11 49 -18 91 -15
94 5 5 18 -10 91 -109 133 -180 265 -296 428 -378 51 -25 166 -66 217 -76 7
-2 20 -5 28 -9 19 -7 139 -37 165 -41 11 -2 52 -8 90 -14 39 -7 88 -14 110
-16 22 -3 42 -5 45 -6 6 -3 65 1 110 6 19 3 46 4 60 3 130 -10 267 -1 368 22
26 6 60 13 76 16 89 15 293 80 373 118 50 25 126 73 170 107 75 59 188 172
207 207 5 9 15 21 21 26 6 6 33 40 59 78 26 37 52 67 57 67 6 0 8 -3 6 -7 -3
-5 -8 -24 -11 -43 -3 -19 -12 -65 -19 -102 -8 -38 -12 -68 -8 -68 14 0 149
108 203 163 166 166 249 349 253 558 1 58 -2 130 -7 160 -5 30 -11 67 -13 82
-4 28 -19 81 -36 125 -12 31 -11 82 1 82 31 0 81 -194 95 -375 2 -22 3 -42 4
-44 3 -12 221 271 221 287 0 6 4 12 8 14 30 11 318 508 295 508 -4 0 -3 4 3 8
17 12 131 305 149 382 1 8 10 40 19 70 8 30 18 73 22 95 3 22 8 44 11 48 2 4
6 22 9 40 2 18 6 43 9 57 3 14 8 48 11 75 3 28 7 64 9 80 5 46 6 264 1 315 -9
92 -18 147 -41 255 -3 11 -7 31 -10 45 -2 14 -10 49 -16 77 -5 29 -12 63 -13
75 -2 13 -6 30 -9 38 -5 13 -10 41 -23 120 -2 14 -7 36 -10 50 -3 14 -8 34
-10 45 -4 23 -11 61 -17 90 -2 11 -7 36 -11 55 -3 19 -8 46 -11 60 -3 14 -8
39 -10 55 -3 17 -9 44 -14 60 -6 25 0 46 40 125 26 52 50 106 54 120 4 14 11
30 15 35 7 8 53 148 66 195 17 68 21 90 16 94 -3 4 -1 6 5 6 5 0 10 6 10 13 0
10 14 78 29 142 17 74 49 270 60 370 3 28 7 61 9 75 2 14 6 54 9 90 4 36 8 83
11 105 3 22 7 78 11 125 3 47 8 114 11 150 6 88 13 1062 7 1072 -2 4 -7 67 -9
140 -2 73 -7 158 -10 188 -3 30 -7 82 -10 115 -11 144 -17 172 -56 255 -51
107 -159 304 -171 308 -4 2 -8 9 -8 16 0 7 -5 17 -12 24 -11 11 -15 22 -22 67
-4 25 -15 64 -26 90 -4 11 -18 49 -30 85 -40 117 -167 367 -192 378 -5 2 -8 8
-8 13 0 9 -36 66 -50 79 -3 3 -14 18 -24 34 -51 80 -249 285 -363 376 -148
118 -376 255 -542 326 -92 38 -290 111 -325 119 -12 2 -55 14 -96 25 -41 11
-88 23 -104 26 -16 3 -32 7 -35 9 -4 2 -25 6 -47 9 -22 4 -51 9 -64 12 -51 11
-66 13 -100 18 -19 3 -46 7 -60 10 -90 16 -451 41 -462 31z m277 -2619 c39 -3
88 -8 110 -11 22 -3 58 -8 80 -10 22 -3 51 -7 65 -10 14 -3 39 -7 55 -10 17
-2 41 -6 55 -9 14 -3 48 -10 75 -16 59 -11 70 -14 155 -35 36 -8 72 -17 80
-19 8 -2 41 -12 74 -21 32 -9 66 -19 75 -20 9 -2 16 -4 16 -4 0 -1 73 -26 162
-55 89 -30 177 -61 195 -69 18 -8 60 -25 93 -38 222 -85 388 -246 517 -502 10
-21 22 -36 26 -33 4 2 21 -2 37 -10 17 -8 21 -12 11 -9 -11 3 -35 8 -55 11
-20 3 -52 9 -71 14 -19 5 -48 12 -65 14 -16 3 -41 8 -55 11 -14 3 -40 7 -57
10 -18 2 -48 7 -65 10 -18 3 -55 7 -83 10 -27 3 -68 8 -90 10 -120 14 -391 20
-500 10 -122 -10 -178 -17 -227 -25 -50 -9 -66 -12 -128 -25 -14 -3 -34 -7
-45 -9 -96 -18 -229 -81 -273 -130 -28 -32 -31 -32 -133 -36 -115 -3 -349 -4
-477 0 -81 2 -83 3 -125 43 -23 22 -71 54 -107 70 -58 26 -202 66 -300 82 -19
3 -46 7 -60 10 -88 15 -221 24 -370 25 -209 0 -412 -18 -624 -55 -82 -15 -89
-16 -161 -34 -49 -13 -68 -13 -37 -1 12 5 22 16 22 24 0 8 4 16 8 18 4 2 20
27 35 56 52 99 163 236 246 302 17 14 41 33 53 43 47 38 362 175 440 191 7 2
20 6 28 9 17 7 166 56 190 63 8 2 83 21 165 43 83 22 164 42 180 44 17 3 50
10 75 16 47 10 161 30 218 37 17 2 49 6 70 9 20 2 78 7 127 11 50 3 91 7 92 8
4 3 215 -3 278 -8z m-2276 -880 c-2 -2 -26 -10 -53 -19 -53 -18 -55 -10 -3 10
31 11 65 17 56 9z m1027 -11 c100 -9 106 -10 192 -29 77 -17 176 -50 184 -61
4 -5 8 -7 8 -2 0 17 142 -69 193 -117 101 -95 125 -155 128 -321 4 -247 -112
-493 -291 -615 -76 -51 -190 -98 -280 -115 -28 -5 -95 -15 -140 -21 -84 -10
-395 -13 -445 -3 -27 5 -65 12 -82 15 -47 7 -196 67 -235 94 -71 49 -127 119
-186 232 -83 159 -123 303 -127 461 -3 110 7 163 40 227 17 33 81 100 95 100
5 0 15 6 22 13 20 18 84 47 166 73 64 21 105 30 267 59 17 3 73 8 125 12 52 3
96 7 97 8 5 4 204 -3 269 -10z m2499 1 c275 -29 475 -89 587 -178 22 -17 50
-55 70 -95 31 -63 32 -71 32 -182 0 -121 -6 -186 -17 -198 -4 -3 -7 -19 -7
-34 0 -15 -4 -30 -9 -33 -5 -3 -12 -23 -16 -43 -15 -81 -126 -285 -189 -348
-43 -43 -136 -111 -136 -99 0 3 -6 2 -12 -4 -23 -18 -135 -53 -214 -66 -78
-14 -359 -14 -489 -1 -137 13 -339 80 -409 134 -73 57 -186 191 -186 220 0 6
-3 11 -8 11 -16 0 -71 169 -87 265 -8 53 -4 251 5 263 2 1 3 5 4 10 17 74 127
201 205 236 22 11 41 23 41 28 0 4 7 8 15 8 8 0 23 4 33 9 46 23 154 59 202
67 8 1 26 5 40 8 41 8 95 15 167 22 37 4 69 7 70 8 6 4 250 -2 308 -8z m755
-20 c35 -16 23 -14 -60 11 -40 12 -41 13 -10 9 19 -2 51 -11 70 -20z m-4460
-26 c-8 -5 -17 -7 -21 -4 -4 2 -10 0 -14 -6 -3 -5 -14 -10 -23 -9 -12 0 -9 4
8 11 14 6 28 12 32 12 3 1 10 4 14 9 4 4 10 5 13 1 3 -3 -1 -9 -9 -14z m4704
-61 c21 -16 25 -28 25 -74 0 -30 -4 -55 -8 -55 -4 0 -7 25 -6 55 1 52 -1 57
-29 74 -17 10 -62 29 -101 41 -38 12 -74 26 -79 31 -19 17 174 -53 198 -72z
m-4814 26 c-14 -8 -32 -14 -40 -14 -8 0 -1 6 15 14 40 18 57 18 25 0z m-74
-37 c-8 -13 -13 -38 -11 -56 1 -18 -1 -34 -4 -37 -13 -8 -5 83 8 99 20 23 24
20 7 -6z m194 -98 c8 -1 4 -5 -10 -9 -20 -6 -25 -14 -27 -41 -2 -61 -3 -63
-10 -56 -5 4 -9 22 -10 39 -2 54 -3 57 -10 56 -5 -1 -15 -1 -23 0 -13 1 -13 3
-1 10 13 8 32 8 91 1z m4595 1 l20 -2 -20 -8 c-11 -5 -24 -7 -30 -5 -6 3 -9
-14 -8 -41 1 -24 -2 -47 -8 -50 -5 -4 -9 4 -10 17 -3 64 -5 73 -19 74 -30 2
-35 4 -22 12 11 8 42 8 97 3z m-4800 -76 c0 -30 -2 -51 -5 -49 -3 3 -5 30 -5
59 0 30 2 51 5 49 3 -3 5 -30 5 -59z m2433 44 c97 0 198 2 223 4 43 3 45 2 41
-21 -4 -22 -2 -24 39 -22 89 4 98 2 92 -20 -3 -11 -9 -20 -13 -20 -4 0 -11
-17 -15 -37 -5 -21 -10 -45 -12 -53 -11 -48 -4 -235 12 -300 3 -14 8 -32 10
-40 2 -8 4 -15 5 -15 1 0 3 -10 6 -23 12 -65 92 -207 159 -281 88 -98 243
-179 395 -207 14 -2 36 -7 49 -10 52 -12 176 -18 356 -18 167 0 201 2 280 23
169 44 289 120 362 231 31 47 92 157 93 165 0 3 6 18 13 33 17 32 52 141 64
197 9 40 9 40 58 43 62 4 86 25 126 108 25 52 38 66 77 85 58 29 60 32 56 75
-1 19 2 34 7 34 5 0 8 -21 7 -47 -3 -46 -5 -49 -43 -62 -47 -16 -71 -40 -96
-98 -21 -49 -66 -99 -94 -105 -13 -2 -19 -11 -17 -23 1 -11 4 -36 6 -55 5 -40
13 -103 22 -172 18 -143 25 -654 9 -666 -5 -4 -15 -20 -21 -37 -7 -16 -30 -73
-52 -125 -46 -112 -107 -290 -128 -374 -8 -34 -17 -70 -20 -81 -3 -11 -8 -33
-10 -50 -3 -16 -10 -50 -15 -75 -5 -25 -11 -56 -14 -70 -11 -58 -27 -106 -41
-124 -15 -22 -60 -25 -179 -12 -38 4 -93 9 -121 10 l-52 3 -21 -44 c-24 -50
-23 -48 -93 -126 -74 -83 -192 -157 -276 -172 -15 -3 -43 -10 -62 -16 -48 -15
-315 -20 -370 -7 -25 6 -83 21 -130 35 -47 13 -92 26 -100 28 -8 2 -28 8 -45
13 -21 6 -38 5 -56 -4 -26 -13 -53 -20 -114 -29 -16 -3 -41 -7 -55 -10 -27 -6
-225 -17 -305 -17 -169 1 -365 27 -422 55 -15 8 -32 13 -38 11 -5 -1 -56 -17
-112 -34 -56 -17 -112 -33 -125 -36 -13 -2 -34 -7 -48 -11 -49 -12 -275 -11
-345 2 -119 23 -128 25 -202 61 -108 52 -206 150 -279 279 -12 22 -12 22 -129
10 -125 -12 -158 -13 -181 -2 -34 15 -39 29 -80 252 -9 49 -27 125 -46 189
-11 38 -21 76 -23 85 -5 22 -64 190 -80 226 -7 17 -32 75 -55 130 -23 55 -50
114 -59 130 -15 26 -17 54 -15 190 4 221 15 394 30 490 4 22 8 51 9 65 2 14 6
45 9 69 4 25 3 42 0 38 -11 -10 -60 20 -80 50 -10 15 -28 48 -40 73 -21 46
-57 77 -93 83 -23 4 -41 17 -22 17 23 0 76 -28 97 -51 12 -13 28 -41 35 -62 7
-21 26 -51 42 -67 25 -25 37 -30 78 -30 l48 0 12 -42 c6 -24 13 -50 14 -58 2
-8 4 -15 5 -15 1 0 3 -7 5 -15 16 -77 106 -257 168 -339 125 -163 326 -232
662 -226 314 6 417 25 589 111 71 35 159 108 214 177 27 35 70 116 96 181 28
70 34 89 41 141 3 17 7 43 11 58 6 29 7 190 1 217 -15 67 -21 89 -33 113 -16
31 -20 30 74 28 48 0 53 1 47 18 -6 19 18 33 38 23 5 -2 88 -4 185 -3z m2492
-29 c0 -16 -4 -30 -8 -30 -4 0 -8 14 -7 30 0 17 3 30 7 30 5 0 8 -13 8 -30z
m-4923 -100 c1 -11 -2 -20 -7 -20 -6 0 -7 17 -1 38 3 8 7 -1 8 -18z"/>
<path d="M4744 4538 c-32 -13 -79 -31 -84 -32 -3 -1 -18 -10 -34 -21 -26 -17
-27 -20 -11 -31 13 -10 27 -9 68 3 74 22 130 48 152 73 l19 21 -45 -2 c-25 -1
-54 -6 -65 -11z"/>
<path d="M5052 4539 c2 -8 22 -23 44 -34 21 -11 42 -24 46 -30 4 -5 8 -6 8 -2
0 4 9 3 21 -3 24 -13 66 -23 93 -22 45 2 31 24 -36 58 -58 29 -76 35 -137 41
-34 4 -42 2 -39 -8z"/>
<path d="M4570 4254 c-47 -12 -75 -24 -187 -75 -216 -99 -436 -183 -533 -204
-68 -14 -203 -12 -251 4 -59 19 -124 72 -185 149 -31 40 -61 72 -67 72 -5 0
-7 -39 -3 -97 11 -194 43 -290 131 -398 96 -119 205 -184 360 -215 92 -19 299
-21 375 -4 86 20 79 18 210 57 157 47 281 76 355 83 44 4 198 16 210 16 69 1
282 -27 365 -47 14 -4 32 -7 40 -9 8 -1 35 -8 60 -16 25 -7 50 -14 57 -16 15
-3 83 -24 103 -31 8 -4 56 -16 105 -29 76 -19 111 -22 225 -19 74 2 146 6 160
9 14 3 37 8 53 11 190 35 388 221 436 410 24 96 40 295 24 295 -6 0 -21 -14
-34 -31 -95 -124 -152 -171 -236 -193 -66 -18 -240 -11 -275 10 -5 3 -20 7
-34 10 -28 5 -140 46 -234 87 -450 193 -415 180 -495 179 -87 -1 -218 -56
-283 -119 -22 -21 -65 -15 -102 15 -54 43 -150 90 -200 96 -87 12 -105 12
-150 0z"/>
</g>
</svg>
