<?xml version="1.0" standalone="no"?>
<!DOCTYPE svg PUBLIC "-//W3C//DTD SVG 20010904//EN"
 "http://www.w3.org/TR/2001/REC-SVG-20010904/DTD/svg10.dtd">
<svg version="1.0" xmlns="http://www.w3.org/2000/svg"
 width="712.000000pt" height="712.000000pt" viewBox="0 0 712.000000 712.000000"
 preserveAspectRatio="xMidYMid meet">
<metadata>
Created by potrace 1.11, written by Peter Selinger 2001-2013
</metadata>
<g transform="translate(0.000000,712.000000) scale(0.100000,-0.100000)"
fill="#000000" stroke="none">
<path d="M1769 6752 c-14 -26 -412 -755 -883 -1620 l-857 -1572 639 -1173
c351 -644 748 -1373 883 -1619 l243 -448 1766 0 1766 0 243 448 c135 246 532
975 883 1619 l639 1173 -857 1572 c-471 865 -869 1594 -883 1620 l-26 48
-1765 0 -1765 0 -26 -48z m4372 -1615 l859 -1578 -861 -1579 -861 -1580 -1718
0 -1718 0 -861 1580 -861 1580 848 1557 c467 857 854 1568 861 1581 l12 22
1720 -2 1720 -3 860 -1578z"/>
<path d="M1590 4720 l0 -520 650 0 650 0 0 -1445 0 -1445 680 0 680 0 0 1445
0 1445 648 2 647 3 3 518 2 517 -1980 0 -1980 0 0 -520z"/>
</g>
</svg>
