<?xml version="1.0" encoding="utf-8"?>
<!-- Generator: Adobe Illustrator 24.1.2, SVG Export Plug-In . SVG Version: 6.00 Build 0)  -->
<svg version="1.1"
	 id="svg2211" xmlns:cc="http://creativecommons.org/ns#" xmlns:dc="http://purl.org/dc/elements/1.1/" xmlns:inkscape="http://www.inkscape.org/namespaces/inkscape" xmlns:rdf="http://www.w3.org/1999/02/22-rdf-syntax-ns#" xmlns:sodipodi="http://sodipodi.sourceforge.net/DTD/sodipodi-0.dtd" xmlns:svg="http://www.w3.org/2000/svg"
	 xmlns="http://www.w3.org/2000/svg" xmlns:xlink="http://www.w3.org/1999/xlink" x="0px" y="0px" viewBox="0 0 100 100"
	 style="enable-background:new 0 0 100 100;" xml:space="preserve">
<style type="text/css">
	.st0{fill:none;stroke:#E31B6D;stroke-width:4.207;stroke-linecap:round;stroke-linejoin:round;}
</style>
<sodipodi:namedview  bordercolor="#666666" borderopacity="1.0" gridtolerance="10.0" guidetolerance="10.0" id="base" inkscape:current-layer="svg2211" inkscape:cx="-27.50099" inkscape:cy="127.79775" inkscape:guide-bbox="true" inkscape:pageopacity="0.0" inkscape:pageshadow="2" inkscape:window-height="930" inkscape:window-width="1280" inkscape:window-x="-4" inkscape:window-y="-4" inkscape:zoom="2" objecttolerance="10.0" pagecolor="#ffffff" showgrid="false" showguides="true">
	<inkscape:grid  enabled="true" id="grid3154" type="xygrid" visible="true"></inkscape:grid>
</sodipodi:namedview>
<defs>
	
		<inkscape:perspective  id="perspective10" inkscape:persp3d-origin="50 : 33.333333 : 1" inkscape:vp_x="0 : 50 : 1" inkscape:vp_y="0 : 1000 : 0" inkscape:vp_z="100 : 50 : 1" sodipodi:type="inkscape:persp3d">
		</inkscape:perspective>
	
		<inkscape:perspective  id="perspective2390" inkscape:persp3d-origin="372.04724 : 350.78739 : 1" inkscape:vp_x="0 : 526.18109 : 1" inkscape:vp_y="0 : 1000 : 0" inkscape:vp_z="744.09448 : 526.18109 : 1" sodipodi:type="inkscape:persp3d">
		</inkscape:perspective>
	
		<inkscape:perspective  id="perspective2394" inkscape:persp3d-origin="372.04724 : 350.78739 : 1" inkscape:vp_x="0 : 526.18109 : 1" inkscape:vp_y="0 : 1000 : 0" inkscape:vp_z="744.09448 : 526.18109 : 1" sodipodi:type="inkscape:persp3d">
		</inkscape:perspective>
</defs>
<g id="g3173" transform="matrix(1.35911, 0, 0, 1.3562, 265.674, 124.785)">
	<path id="path2399" sodipodi:nodetypes="cccccccccccc" class="st0" d="M-142.1-55.2c1.2,0.6,2.7,1.3,2.2,5.4
		c-1.3,3.6-3.8,6.6-10.1,6.4c-5.1-1.2-10.6-2.7-10.1-12.8c0.4-5.2,5.9-12.4,15.1-12.5c13.4,0.2,19.9,12,19.4,21.1
		c-0.7,13-11.1,19.8-25.4,21c-7.7,0-16.6-4.2-20.6-10.5c-5.1-6.6-7-20.1-2.8-29c4.5-9.5,13.1-15.5,23.1-15.8
		c9.4-0.2,15.5,3.3,19,5.5l8.2-8"/>
	<path id="path2401" sodipodi:nodetypes="cccc" class="st0" d="M-172.6-69.2c-4.9,7.7-8.3,17.8-11.6,23.9c-2.4,5.2-5.7,8.2-9.1,12.2
		c13.6,7.9,34.5,8.5,48.1,5.7"/>
</g>
</svg>
